<?xml version="1.0" standalone="no"?>
<!DOCTYPE svg PUBLIC "-//W3C//DTD SVG 20010904//EN"
 "http://www.w3.org/TR/2001/REC-SVG-20010904/DTD/svg10.dtd">
<svg version="1.0" xmlns="http://www.w3.org/2000/svg"
 width="439.000000pt" height="529.000000pt" viewBox="0 0 439.000000 529.000000"
 preserveAspectRatio="xMidYMid meet">

<g transform="translate(0.000000,529.000000) scale(0.100000,-0.100000)"
fill="#000000" stroke="none">
<path d="M2006 5118 c-11 -52 -16 -195 -8 -223 8 -29 10 -30 70 -30 64 0 89
13 79 39 -5 11 -20 16 -50 16 l-44 0 -6 93 c-5 94 -12 127 -28 127 -5 0 -11
-10 -13 -22z"/>
<path d="M2274 5083 c-10 -27 -22 -54 -27 -60 -12 -16 -27 -17 -27 -1 0 24
-42 98 -56 98 -18 0 -18 -7 7 -103 34 -137 61 -156 88 -65 7 24 20 56 28 72
19 37 29 23 38 -55 7 -58 22 -84 40 -71 6 4 21 32 35 62 14 30 37 77 52 103
33 57 34 67 9 67 -14 0 -27 -17 -46 -57 -15 -32 -30 -64 -33 -71 -15 -29 -27
-14 -33 38 -9 71 -17 90 -39 90 -13 0 -24 -15 -36 -47z"/>
<path d="M1811 5103 c-13 -26 -20 -222 -8 -240 8 -13 102 -18 131 -7 9 3 16
15 16 25 0 15 -7 19 -34 19 -63 0 -66 4 -66 89 -1 42 -7 90 -14 106 -13 30
-13 30 -25 8z"/>
<path d="M2502 5068 c-47 -64 -67 -102 -77 -147 -10 -44 11 -38 47 15 14 21
31 39 37 38 6 -1 19 -2 29 -2 12 -2 22 -16 30 -47 8 -30 17 -45 28 -45 15 0
16 11 10 100 -10 154 -38 177 -104 88z m48 -47 c0 -6 -4 -13 -10 -16 -5 -3
-10 1 -10 9 0 9 5 16 10 16 6 0 10 -4 10 -9z"/>
<path d="M2681 5103 c-10 -20 -31 -163 -31 -215 0 -45 27 -35 35 13 7 42 31
62 46 38 5 -8 14 -31 19 -51 6 -22 17 -38 25 -38 19 0 18 23 0 75 -14 39 -14
40 12 60 52 42 17 119 -59 131 -29 5 -38 3 -47 -13z m68 -24 c28 -27 24 -53
-10 -57 -24 -3 -27 1 -31 33 -6 52 4 58 41 24z"/>
<path d="M1307 5088 c-15 -8 -17 -27 -17 -129 0 -109 2 -120 18 -117 13 3 19
19 26 81 4 42 12 77 17 77 4 0 17 -28 27 -62 20 -69 45 -85 50 -33 4 49 24
115 33 110 4 -3 13 -31 19 -63 18 -96 20 -102 30 -102 13 0 13 55 0 117 -5 26
-12 65 -15 85 -11 69 -75 59 -75 -12 0 -21 -7 -43 -15 -50 -12 -10 -15 -9 -15
4 0 24 -37 93 -53 99 -7 3 -21 1 -30 -5z"/>
<path d="M1697 5093 c-4 -3 -4 -23 -1 -43 8 -50 -13 -150 -32 -150 -15 0 -25
21 -64 122 -24 61 -40 67 -40 15 1 -90 40 -171 87 -180 39 -8 67 14 81 61 13
42 16 140 6 166 -6 16 -25 21 -37 9z"/>
<path d="M2880 5080 c-14 -9 -33 -80 -46 -174 -8 -59 7 -76 69 -76 77 0 126
97 98 192 -10 30 -20 43 -46 54 -40 16 -54 17 -75 4z m75 -93 c7 -36 -5 -76
-29 -96 -26 -22 -35 -2 -29 67 5 57 8 62 29 62 18 0 24 -7 29 -33z"/>
<path d="M2215 4764 c-52 -13 -76 -28 -82 -52 -4 -19 -1 -30 14 -42 16 -13 21
-32 26 -95 3 -44 10 -129 16 -190 7 -60 16 -153 21 -205 13 -136 21 -144 139
-148 81 -2 99 0 144 22 64 30 75 40 109 93 86 131 92 338 15 459 -34 54 -71
84 -177 144 -25 14 -184 24 -225 14z m165 -102 c74 -28 134 -72 159 -115 28
-49 39 -168 22 -246 -14 -67 -63 -139 -107 -157 -42 -18 -133 -19 -138 -1 -2
6 -11 86 -21 177 -9 91 -26 199 -37 240 -29 109 -30 104 27 111 28 3 50 7 50
7 0 1 20 -6 45 -16z"/>
<path d="M1041 4717 c-15 -15 -14 -60 1 -75 19 -19 56 -14 68 9 21 38 -40 95
-69 66z"/>
<path d="M1638 4716 c-16 -8 -53 -36 -83 -62 -54 -47 -68 -77 -44 -101 6 -6
19 -46 29 -89 20 -84 24 -98 95 -329 63 -206 94 -275 138 -309 l25 -18 101 62
c165 101 186 145 186 385 l0 160 -42 85 c-23 47 -50 95 -61 107 -33 38 -144
91 -222 107 -91 19 -88 19 -122 2z m117 -101 c22 -4 66 -21 98 -38 51 -28 62
-40 91 -98 64 -127 70 -314 13 -429 -17 -34 -36 -52 -80 -78 -33 -19 -63 -30
-67 -26 -4 5 -17 32 -27 59 -21 53 -31 85 -83 255 -17 58 -45 150 -62 204
l-31 99 37 34 c22 20 44 32 54 29 9 -2 35 -7 57 -11z"/>
<path d="M872 4648 c-30 -30 2 -118 43 -118 35 0 46 28 29 69 -13 30 -39 60
-54 61 -4 0 -11 -5 -18 -12z"/>
<path d="M2984 4550 c-33 -13 -117 -115 -186 -225 -34 -55 -90 -133 -125 -173
-34 -40 -72 -91 -83 -113 -27 -51 -23 -93 7 -97 18 -3 30 8 57 50 18 29 52 73
74 98 l40 45 91 -91 c96 -97 102 -110 82 -178 -24 -79 -40 -189 -30 -207 11
-22 61 -26 77 -6 12 15 27 70 46 169 8 40 20 98 26 128 31 159 35 197 34 340
-2 183 -12 233 -54 255 -16 8 -30 15 -32 14 -2 0 -13 -4 -24 -9z m9 -284 c0
-100 -5 -172 -11 -178 -7 -7 -23 -1 -49 19 -21 16 -56 40 -78 53 -22 13 -41
25 -43 26 -8 6 162 254 172 251 7 -3 11 -59 9 -171z"/>
<path d="M1105 4476 c-19 -13 -20 -26 -19 -178 0 -110 6 -187 16 -238 9 -41
20 -97 23 -125 21 -156 146 -511 201 -570 52 -56 59 11 14 136 -52 141 -107
312 -114 350 -6 36 -6 37 63 78 38 22 75 41 81 41 7 0 28 7 47 16 20 10 38 13
43 8 5 -5 27 -45 50 -89 23 -44 61 -114 83 -155 23 -41 48 -88 57 -105 18 -35
45 -44 58 -18 8 14 -14 66 -101 243 -62 124 -128 247 -147 273 -177 242 -198
267 -256 312 -42 32 -75 39 -99 21z m141 -168 c72 -79 144 -182 144 -210 0
-12 -13 -21 -39 -28 -22 -6 -63 -29 -91 -51 -28 -22 -53 -39 -55 -37 -24 27
-59 398 -37 398 5 0 40 -33 78 -72z"/>
<path d="M495 4303 c-93 -58 -131 -97 -159 -169 -45 -111 -49 -284 -11 -443
53 -223 51 -216 97 -326 93 -221 214 -420 360 -591 69 -81 206 -198 273 -232
31 -15 102 -25 109 -14 12 20 -8 43 -120 132 -242 194 -460 518 -564 840 -37
112 -59 210 -49 216 4 2 54 -2 109 -11 82 -12 120 -24 198 -62 100 -49 141
-85 375 -331 64 -67 97 -79 117 -41 19 35 4 60 -97 164 -54 55 -107 111 -118
125 -42 52 -139 124 -233 172 -115 60 -111 57 -92 71 8 7 36 35 61 63 64 69
86 144 69 229 -13 68 -42 140 -68 169 -77 87 -159 99 -257 39z m167 -87 c32
-24 61 -107 61 -174 1 -61 -1 -64 -44 -108 -75 -77 -216 -128 -268 -95 -33 21
-21 173 20 268 27 59 117 123 173 123 23 0 49 -6 58 -14z"/>
<path d="M3573 4301 c-89 -30 -145 -78 -290 -246 -116 -134 -263 -386 -263
-450 0 -31 3 -35 26 -35 31 0 72 43 104 108 27 55 149 244 164 254 19 13 25 9
64 -49 70 -106 84 -153 90 -297 9 -262 -61 -504 -188 -650 -39 -45 -49 -63
-44 -79 28 -91 136 -2 229 188 57 116 66 151 91 335 20 149 8 360 -25 430 -29
64 -28 70 22 70 64 0 177 24 223 48 93 47 135 133 116 236 -15 77 -32 100 -96
131 -64 30 -146 33 -223 6z m173 -93 c58 -21 73 -103 29 -156 -32 -38 -88 -60
-173 -68 -57 -5 -76 -3 -116 15 -27 11 -55 21 -62 21 -30 0 -11 38 44 93 96
95 190 127 278 95z"/>
<path d="M2240 3843 c-98 -12 -216 -61 -295 -121 -105 -82 -145 -136 -185
-254 -25 -75 -29 -80 -101 -134 -115 -89 -131 -103 -170 -154 -48 -64 -66
-128 -50 -180 15 -50 81 -108 134 -117 48 -7 55 -24 34 -84 -9 -25 -17 -55
-17 -66 0 -34 -91 -386 -115 -443 -12 -30 -34 -87 -49 -127 -34 -89 -47 -102
-75 -74 -12 12 -24 21 -28 21 -5 0 -6 -38 -4 -85 1 -47 -1 -85 -5 -85 -5 0
-22 20 -37 44 -50 79 -57 79 -57 -5 l0 -73 -50 49 c-53 52 -67 55 -50 11 11
-29 14 -116 4 -116 -15 0 -52 26 -77 54 l-29 31 7 -72 c5 -49 4 -73 -3 -73 -6
0 -15 6 -19 13 -10 16 -85 77 -95 77 -11 0 -10 -58 1 -98 5 -17 7 -32 3 -32
-4 0 -35 28 -69 62 -34 34 -65 59 -68 56 -4 -3 -2 -32 4 -64 6 -31 9 -60 6
-62 -3 -3 -15 4 -28 16 -21 19 -57 30 -57 17 0 -2 13 -29 29 -59 29 -53 31
-68 8 -61 -7 2 -27 6 -44 9 -43 7 -42 -5 3 -72 20 -29 35 -55 32 -57 -2 -2
-31 7 -64 20 -59 25 -154 34 -154 15 0 -5 16 -16 36 -25 45 -19 94 -53 94 -67
0 -6 -21 -8 -52 -6 -67 4 -73 -13 -14 -42 25 -12 48 -25 51 -30 2 -4 -16 -15
-40 -25 -52 -19 -57 -32 -17 -41 54 -12 55 -12 38 -36 -30 -43 -11 -179 26
-193 7 -3 37 -6 66 -8 52 -3 54 -4 82 -53 38 -68 52 -78 116 -78 48 -1 56 -4
67 -26 7 -14 30 -34 51 -44 33 -16 45 -17 87 -8 46 11 50 10 73 -13 34 -34 73
-42 109 -21 24 14 31 14 41 3 24 -29 67 -47 110 -47 36 0 52 6 78 29 l32 28
49 -26 c56 -28 157 -40 206 -23 25 9 33 7 53 -10 50 -44 93 -47 213 -19 l80
20 17 -22 c15 -19 27 -22 90 -22 57 0 81 5 108 21 55 33 87 38 95 14 3 -11 18
-23 33 -26 15 -3 35 -8 44 -10 29 -8 96 15 116 41 12 15 22 21 29 14 15 -15
115 -14 140 1 17 11 27 11 48 2 35 -16 104 -15 135 3 14 8 36 14 50 15 14 0
42 12 63 26 24 16 45 23 55 19 14 -6 15 -8 2 -13 -18 -6 -39 -33 -40 -49 -1
-36 67 -56 111 -33 28 15 26 64 -3 77 -23 11 -22 11 7 17 81 18 107 29 138 59
32 30 38 32 73 24 99 -22 239 8 287 61 11 12 26 18 42 14 18 -3 32 4 54 27 16
17 36 31 46 31 37 0 74 30 86 69 16 54 6 81 -42 115 -25 17 -38 34 -35 42 7
17 -31 34 -74 34 -38 0 -48 29 -18 52 13 10 29 18 36 18 6 0 12 7 12 15 0 12
-13 15 -57 16 l-58 0 29 22 c63 48 71 56 64 63 -4 4 -44 6 -88 5 -44 -1 -80 2
-80 7 0 5 20 23 45 41 81 58 49 69 -64 21 -40 -17 -76 -28 -81 -25 -5 3 3 46
16 96 14 50 23 93 20 96 -6 6 -55 -27 -104 -69 -18 -15 -37 -28 -42 -28 -21 0
12 98 58 172 9 15 13 30 10 34 -7 6 -94 -41 -170 -91 -21 -14 -38 -21 -38 -15
0 6 25 65 55 132 36 79 52 125 46 131 -7 7 -16 5 -27 -4 -16 -13 -17 -11 -11
24 4 24 1 47 -9 65 -7 15 -14 44 -14 65 0 31 -7 45 -31 68 -29 27 -36 29 -119
29 l-87 0 -7 41 c-9 55 -46 91 -88 87 -41 -4 -58 -34 -58 -108 0 -66 -24 -203
-42 -246 -8 -20 -18 -29 -28 -26 -9 3 -38 -21 -78 -64 l-63 -69 7 53 c7 54 2
62 -26 37 -16 -14 -17 -9 -23 65 -7 92 -8 89 87 235 32 50 82 126 110 169 70
109 69 108 159 71 33 -14 17 11 -18 28 -52 25 -47 64 6 45 45 -15 59 -2 17 16
-21 9 -38 21 -38 27 0 7 7 8 18 4 9 -5 32 -10 50 -13 24 -3 32 0 32 11 0 17
-21 27 -53 27 -32 0 -50 78 -50 215 l-1 109 50 -3 c39 -2 56 3 78 20 26 21 28
26 24 79 -7 92 -88 196 -229 294 -30 22 -61 52 -68 67 -21 47 -107 153 -172
212 -41 38 -99 75 -168 109 -98 48 -111 52 -186 54 -44 1 -96 0 -115 -3z m146
-78 c40 -42 144 -194 144 -210 0 -1 -78 -2 -172 -2 -95 -1 -202 -6 -237 -13
-34 -6 -65 -9 -68 -6 -9 9 18 93 49 154 53 102 92 129 188 131 41 1 48 -3 96
-54z m72 36 c9 -5 40 -20 67 -32 32 -15 81 -54 136 -108 81 -81 148 -161 136
-161 -4 0 -44 9 -89 19 -46 11 -96 21 -111 23 -25 3 -31 10 -49 63 -11 33 -42
93 -69 133 -50 74 -52 79 -21 63z m-394 -96 c-19 -35 -43 -92 -53 -127 l-18
-63 -64 -25 c-35 -14 -83 -35 -107 -47 l-43 -22 7 22 c13 44 66 141 100 183
36 43 175 144 200 144 9 0 3 -20 -22 -65z m503 -210 c59 -9 134 -22 166 -31
61 -16 151 -53 129 -54 -7 0 -27 7 -44 16 -85 44 -421 60 -597 29 -230 -41
-303 -69 -506 -189 -76 -45 -187 -143 -217 -191 -25 -42 -24 -7 2 42 30 57 56
84 155 163 144 115 292 186 447 214 101 19 335 19 465 1z m-82 -64 c-19 -8
-18 -9 5 -13 25 -5 25 -5 3 -13 -31 -10 -29 -23 2 -20 14 2 27 0 30 -5 6 -10
55 11 55 24 0 4 -6 6 -14 3 -8 -3 -17 1 -20 9 -7 18 13 18 37 0 10 -8 27 -12
37 -9 24 6 27 -12 4 -21 -9 -3 -27 -6 -40 -6 -14 0 -24 -6 -24 -14 0 -20 17
-29 23 -14 3 10 7 10 17 1 10 -9 18 -5 37 18 14 16 32 29 41 28 16 0 16 -1 0
-7 -14 -6 -13 -11 13 -40 29 -32 31 -33 44 -16 10 14 10 21 2 26 -8 5 -8 8 -1
8 6 0 22 -9 35 -21 13 -11 31 -25 39 -29 8 -5 11 -12 7 -16 -4 -4 -17 2 -30
14 -25 24 -37 28 -37 12 0 -18 41 -48 60 -43 22 6 36 -15 21 -30 -9 -9 -11 -8
-6 5 5 13 2 15 -14 11 -27 -7 -27 -17 2 -36 21 -14 23 -13 35 11 9 20 9 29 0
41 -8 10 -4 8 10 -3 22 -19 31 -43 12 -31 -5 3 -10 -4 -10 -15 0 -18 4 -21 24
-16 16 4 26 1 30 -9 3 -8 1 -15 -5 -15 -5 0 -4 -6 3 -14 10 -10 15 -11 21 -2
6 7 7 4 3 -6 -3 -10 -1 -18 4 -18 9 0 40 -56 40 -72 0 -4 -8 -8 -17 -8 -14 0
-15 2 -5 9 10 6 10 10 -3 21 -8 7 -15 19 -15 26 0 8 -13 22 -28 32 -16 9 -27
23 -24 31 3 9 0 11 -8 6 -7 -4 -16 -2 -21 6 -8 12 -11 12 -19 -1 -5 -8 -10
-10 -10 -4 0 7 -9 14 -20 17 -11 3 -18 1 -14 -4 3 -5 -2 -9 -10 -9 -9 0 -16 6
-16 13 0 10 -32 35 -71 55 -3 1 -6 -4 -6 -13 0 -8 6 -15 13 -15 8 0 11 -6 7
-16 -5 -13 -1 -15 18 -9 17 4 20 3 10 -3 -11 -8 -10 -11 5 -15 15 -4 13 -5 -6
-6 -18 -1 -31 8 -45 30 -11 16 -19 34 -17 40 1 5 -3 9 -8 9 -14 0 -12 -12 5
-36 16 -24 11 -34 -19 -33 -12 0 -15 3 -8 6 6 2 12 12 12 20 0 14 -3 13 -21
-3 -17 -16 -22 -16 -29 -4 -8 12 -10 12 -10 1 0 -7 -6 -11 -13 -8 -8 3 -14 -1
-14 -8 0 -10 5 -11 19 -4 26 14 23 -5 -4 -25 -21 -15 -20 -15 12 0 31 15 34
15 22 1 -8 -9 -11 -21 -7 -27 9 -14 25 -13 20 3 -5 13 49 49 59 40 7 -7 -62
-67 -78 -69 -6 -1 -18 -2 -28 -3 -10 -1 -15 -8 -13 -18 2 -10 4 -20 4 -22 1
-2 10 4 20 13 19 17 19 17 14 -3 -3 -12 -9 -21 -14 -21 -5 0 -9 -9 -9 -20 0
-11 -4 -20 -9 -20 -6 0 -10 -8 -10 -17 0 -10 -1 -31 -2 -48 -1 -16 4 -31 10
-33 21 -7 11 -32 -13 -32 -32 0 -63 45 -45 66 6 8 9 18 5 22 -4 4 -14 -1 -21
-11 -7 -10 -17 -17 -21 -16 -21 4 -28 -2 -14 -11 12 -8 13 -11 1 -19 -9 -6
-10 -10 -2 -16 7 -4 18 -2 25 4 10 9 15 8 20 -5 12 -32 7 -51 -16 -50 -18 1
-24 -5 -26 -28 -3 -19 0 -26 8 -21 7 4 10 15 7 25 -3 13 0 17 9 13 8 -3 14 -9
14 -14 0 -5 7 -9 16 -9 11 0 14 5 9 18 -5 13 -3 14 6 5 16 -16 1 -36 -22 -30
-11 3 -19 1 -19 -4 0 -9 7 -11 50 -13 14 -1 30 -4 37 -9 7 -4 16 0 22 10 5 10
12 15 16 12 11 -12 -26 -39 -48 -35 -12 1 -16 1 -9 -1 15 -6 15 -16 0 -31 -9
-9 -9 -12 0 -12 7 0 12 5 12 10 0 6 5 10 10 10 7 0 7 -6 0 -20 -9 -16 -8 -20
5 -20 8 0 15 7 15 17 0 9 3 14 6 10 11 -11 -8 -49 -22 -43 -7 3 -16 0 -20 -6
-5 -8 3 -9 24 -5 26 5 32 3 32 -10 0 -9 3 -14 6 -11 8 8 44 -29 44 -44 0 -9 3
-8 10 2 5 8 12 11 16 7 4 -3 2 -13 -5 -20 -9 -11 -8 -17 4 -27 9 -8 15 -9 14
-4 -4 24 3 34 24 34 19 -1 20 -2 7 -13 -25 -20 -21 -33 15 -46 18 -6 36 -19
39 -28 8 -21 -3 -31 -14 -13 -8 12 -10 12 -16 -3 -3 -10 -17 -17 -30 -17 -21
0 -23 3 -14 19 13 26 13 31 -5 31 -8 0 -15 -8 -15 -17 0 -15 -2 -14 -15 3 -13
18 -14 18 -9 -8 5 -30 -12 -40 -18 -11 -3 19 -46 26 -65 11 -9 -7 -18 -6 -28
2 -18 15 -20 -1 -2 -19 10 -10 1 -11 -48 -5 -57 6 -80 18 -69 36 3 4 -2 8 -10
8 -10 0 -13 -6 -10 -15 5 -11 2 -13 -10 -9 -9 3 -14 9 -11 13 2 4 -9 5 -26 3
-16 -2 -36 1 -44 8 -8 6 -19 9 -25 5 -5 -3 -10 -1 -10 4 0 6 -9 11 -19 11 -10
0 -21 7 -25 15 -4 12 0 14 22 9 26 -6 26 -6 7 9 -20 16 -20 16 3 17 12 0 22 5
22 10 0 6 11 8 25 6 13 -3 27 -1 29 3 3 4 -13 8 -35 9 -25 2 -39 -2 -39 -9 0
-7 -9 -4 -21 7 -12 10 -24 18 -28 17 -3 -2 -6 2 -6 9 0 6 -6 13 -14 16 -9 3
-11 0 -6 -8 4 -7 2 -16 -6 -21 -22 -14 -28 -11 -22 11 3 11 0 20 -6 20 -5 0
-8 -7 -5 -15 9 -23 -20 -18 -42 6 -19 22 -19 22 4 10 23 -12 23 -12 11 11 -11
20 -11 22 3 10 13 -10 17 -10 21 0 4 10 8 10 17 -2 8 -12 9 -9 5 15 -3 17 -2
24 1 18 3 -7 10 -13 14 -13 12 0 7 40 -9 68 -7 13 -9 27 -5 30 4 4 9 2 11 -4
5 -15 50 -5 57 12 7 17 -5 18 -24 2 -8 -7 -6 -3 4 9 10 13 22 20 27 18 4 -3
11 0 15 6 4 8 3 9 -4 5 -15 -9 -15 -1 -1 25 5 11 18 19 27 18 32 -3 55 1 48 9
-4 4 -18 7 -29 7 -18 0 -21 5 -19 30 4 35 18 55 39 55 8 0 12 4 8 10 -3 5 -12
7 -20 3 -11 -4 -13 -1 -9 11 3 9 13 16 21 16 8 0 11 5 8 11 -4 6 -13 8 -21 5
-18 -7 -18 -1 2 18 8 9 17 25 19 37 3 12 1 19 -2 15 -4 -3 -19 6 -35 21 -35
33 -36 23 -3 -21 22 -29 23 -35 10 -46 -13 -10 -15 -9 -15 9 0 12 -10 35 -22
52 -19 25 -20 32 -8 39 8 5 21 5 29 1 23 -12 52 1 42 18 -6 9 -11 10 -15 2
-10 -16 -29 -13 -23 3 4 10 1 13 -9 9 -7 -3 -14 0 -14 7 0 6 -5 8 -11 4 -6 -3
-28 -9 -48 -11 -34 -4 -35 -4 -16 10 11 9 16 19 12 23 -4 4 -14 1 -23 -8 -14
-13 -20 -13 -56 -1 -34 11 -43 12 -50 1 -6 -10 -10 -10 -18 2 -8 13 -12 12
-25 -7 -9 -13 -22 -23 -28 -23 -9 0 -9 2 0 8 7 4 11 21 10 37 -2 22 -8 30 -21
30 -11 0 -21 -6 -24 -14 -3 -10 0 -12 12 -8 16 7 23 -13 9 -27 -4 -4 -8 -15
-8 -23 0 -9 -6 -18 -14 -21 -9 -3 -11 0 -6 8 6 9 4 11 -4 6 -7 -5 -10 -14 -7
-21 3 -8 -2 -11 -15 -8 -19 5 -24 -5 -19 -37 2 -12 -2 -12 -17 3 -30 26 -51
22 -25 -6 12 -13 22 -27 22 -33 0 -5 -5 -1 -11 9 -5 9 -22 17 -37 18 -15 0
-21 3 -14 6 6 2 12 12 12 21 -1 15 -3 14 -15 -2 -13 -18 -13 -22 5 -41 11 -12
20 -28 21 -36 0 -10 2 -10 6 -1 2 6 9 12 14 12 6 0 6 -8 -1 -19 -13 -25 -13
-98 0 -106 13 -8 0 -37 -15 -31 -8 3 -12 -2 -11 -12 2 -9 9 -18 16 -20 7 -3
10 0 6 7 -4 6 -1 11 8 11 9 0 16 -2 16 -4 0 -2 3 -11 6 -19 4 -12 -4 -14 -40
-11 -38 4 -44 2 -39 -12 5 -12 7 -13 14 -2 7 11 10 10 21 -1 11 -11 11 -13 -1
-6 -11 6 -13 4 -8 -8 4 -11 -1 -21 -15 -28 -15 -8 -18 -8 -14 0 5 7 -1 11 -14
11 -14 0 -19 4 -14 12 5 8 2 9 -9 5 -10 -4 -17 -2 -17 4 0 6 -6 9 -14 6 -17
-7 -36 11 -36 33 1 13 3 12 14 -2 15 -21 27 -23 23 -5 -1 6 6 11 15 9 9 -1 19
2 23 8 3 6 0 7 -9 4 -15 -6 -21 6 -17 29 1 5 -3 6 -8 2 -6 -3 -7 -13 -4 -22 4
-11 3 -14 -5 -9 -14 9 -15 26 -3 45 8 12 12 12 24 2 11 -9 17 -9 22 -1 4 6 4
14 1 17 -3 4 -6 1 -6 -7 0 -9 -3 -10 -14 -1 -7 6 -22 8 -32 4 -16 -6 -17 -4
-7 8 10 13 9 20 -7 37 -23 25 -26 36 -6 29 9 -4 12 0 9 12 -2 9 5 27 16 39
l19 23 7 -22 c5 -15 9 -18 15 -9 5 9 9 9 14 1 4 -6 12 -11 18 -11 6 0 3 9 -7
20 -17 18 -17 21 4 55 11 20 21 45 21 55 0 12 5 17 13 14 7 -2 22 4 32 16 10
11 13 20 7 20 -7 0 -12 -4 -12 -10 0 -5 -5 -10 -11 -10 -8 0 -7 5 1 15 7 9 19
14 27 11 8 -4 17 4 23 19 5 14 12 25 15 25 4 0 3 -4 0 -10 -3 -5 -1 -10 6 -10
8 0 8 -4 -1 -15 -7 -8 -8 -15 -4 -15 5 0 15 9 21 19 10 15 10 21 0 24 -7 2 -8
8 -4 13 4 5 12 2 17 -5 4 -8 15 -11 24 -8 9 4 16 3 16 -2 0 -4 20 -12 45 -18
25 -6 45 -6 45 -2 0 13 38 11 45 -1 5 -8 11 -7 21 0 7 7 19 10 26 7 21 -7 -37
-26 -63 -21 l-24 5 25 -15 c16 -9 29 -11 36 -5 6 5 23 10 37 11 19 2 23 5 16
15 -6 7 -8 17 -5 22 12 19 -15 23 -41 6 -20 -13 -27 -14 -33 -5 -5 7 -15 10
-23 7 -9 -3 -18 0 -20 7 -3 7 0 13 6 13 7 0 20 4 30 8 12 5 17 2 17 -9 0 -9 4
-16 9 -16 17 0 19 15 5 34 -11 16 -18 17 -36 9 -17 -8 -26 -7 -35 3 -10 10 -2
12 46 11 33 -1 57 2 54 6 -3 5 17 7 43 6 29 -1 48 2 47 8 -1 6 20 10 50 10 40
0 43 -1 14 -4 -24 -3 -40 -10 -44 -21 -3 -9 -12 -24 -20 -34 -11 -12 -11 -18
-3 -23 7 -4 16 -2 20 6 7 10 11 10 24 0 13 -11 17 -10 25 10 5 14 5 25 0 27
-5 2 -9 8 -9 14 0 6 7 8 15 4 8 -3 21 1 29 9 19 19 26 19 26 0 0 -8 5 -15 11
-15 6 0 8 9 4 20 -5 17 -2 20 22 19 24 0 25 -1 8 -8z m-375 -61 c0 -5 -4 -10
-10 -10 -5 0 -10 5 -10 10 0 6 5 10 10 10 6 0 10 -4 10 -10z m-46 -9 c13 -5
16 -10 8 -15 -14 -8 -62 3 -62 15 0 11 27 11 54 0z m61 -31 c3 -5 -3 -10 -15
-10 -12 0 -18 5 -15 10 3 6 10 10 15 10 5 0 12 -4 15 -10z m165 -100 c0 -5 -4
-10 -10 -10 -5 0 -10 5 -10 10 0 6 5 10 10 10 6 0 10 -4 10 -10z m-470 -52
c-13 -13 -19 -16 -15 -8 14 25 28 41 32 36 3 -3 -5 -15 -17 -28z m368 17 c53
-22 85 -67 90 -130 8 -96 -47 -179 -142 -215 -55 -21 -144 30 -183 104 -23 43
-13 143 18 186 46 63 139 86 217 55z m683 -58 c47 -35 68 -129 44 -193 -18
-49 -64 -87 -51 -43 17 58 18 106 2 137 -16 32 -46 44 -46 19 0 -18 -38 -57
-55 -57 -20 0 -57 42 -50 57 3 7 8 20 11 28 4 10 0 15 -13 15 -28 0 -63 -28
-80 -64 l-14 -31 6 35 c9 54 69 109 131 119 49 7 85 0 115 -22z m118 -165 c1
-20 -3 -31 -9 -27 -5 3 -9 32 -9 63 1 47 3 52 9 27 4 -16 8 -45 9 -63z m-1246
39 c-8 -13 -8 -22 -1 -29 7 -7 7 -20 -1 -43 -13 -39 -14 -52 -2 -44 6 3 15 -4
21 -15 13 -24 -1 -50 -27 -50 -10 0 -13 -6 -9 -17 4 -10 -2 -25 -15 -39 -18
-19 -20 -26 -9 -39 17 -20 1 -19 -22 2 -16 15 -21 15 -28 3 -10 -16 -3 -33 10
-25 5 3 11 1 15 -5 4 -6 11 -7 17 -4 6 4 8 3 5 -3 -6 -10 -54 -10 -64 1 -10 9
21 96 34 96 16 0 17 17 1 22 -7 3 -9 14 -5 30 5 20 12 25 27 21 21 -6 29 20
10 32 -5 3 -10 18 -9 33 l0 27 11 -25 10 -25 9 24 c6 14 7 38 3 54 -5 22 -3
28 7 22 9 -6 11 -2 6 15 -4 17 -3 20 6 11 9 -9 9 -16 0 -30z m1222 -93 c-7
-23 -7 -23 9 -3 13 17 15 18 16 3 0 -9 -5 -20 -10 -23 -6 -4 -8 -10 -6 -14 3
-4 -9 -5 -26 -3 -16 3 -26 7 -21 11 6 3 15 16 22 29 6 12 14 22 17 22 3 0 2
-10 -1 -22z m-1014 -25 c-12 -22 4 -53 27 -53 15 1 15 2 -2 15 -11 8 -16 18
-12 22 10 10 37 -27 29 -40 -4 -6 2 -8 15 -5 12 4 22 2 22 -3 0 -5 10 -9 22
-9 21 0 21 -1 3 -14 -18 -13 -17 -14 11 -14 16 0 37 4 46 9 38 20 85 -10 72
-46 -8 -21 -27 -19 -42 5 -10 16 -23 20 -70 20 -60 0 -75 -6 -85 -30 -4 -10
-6 -8 -6 8 -1 12 -5 22 -9 22 -4 0 -7 -12 -6 -27 1 -16 7 -27 13 -25 6 1 11
-2 11 -7 0 -5 6 -11 13 -14 6 -2 5 -3 -3 -2 -18 2 -32 -11 -50 -46 l-13 -24
24 21 c22 20 25 20 40 5 9 -9 14 -25 12 -36 -8 -36 -9 -155 -1 -155 3 0 8 12
10 28 3 27 4 27 9 -5 3 -18 2 -30 -3 -27 -4 3 -8 -2 -8 -11 0 -9 -5 -13 -10
-10 -21 13 -4 -20 18 -36 12 -8 19 -19 15 -22 -10 -11 -25 -8 -18 3 3 6 -1 7
-9 4 -9 -3 -16 -10 -16 -16 0 -5 5 -6 11 -2 8 4 9 0 4 -15 -9 -28 1 -26 31 7
l25 27 -15 -32 c-9 -17 -21 -33 -28 -36 -8 -2 -9 -8 -4 -13 5 -5 11 -4 13 4 3
6 10 12 17 12 7 0 17 10 22 23 6 12 9 16 7 8 -4 -18 17 -42 30 -34 5 3 7 2 4
-4 -3 -5 3 -17 14 -27 23 -19 20 -42 -4 -40 -9 1 -14 -3 -11 -8 7 -10 45 -7
77 7 10 4 17 3 17 -4 0 -6 -5 -11 -11 -11 -7 0 -17 -8 -24 -17 -11 -14 -15
-15 -28 -4 -9 7 -22 9 -29 5 -8 -5 -3 -10 17 -16 21 -5 34 -3 46 8 9 8 27 16
40 16 43 3 79 -2 78 -9 -3 -21 3 -28 26 -29 26 -2 30 17 5 28 -14 6 48 13 80
8 21 -3 21 -3 23 -50 1 -28 7 -45 19 -51 13 -7 16 -6 13 4 -4 9 5 12 36 10 23
-1 43 -4 45 -6 2 -2 -10 -14 -27 -26 -24 -18 -33 -20 -39 -11 -4 7 -15 10 -24
7 -32 -12 -15 -22 42 -24 37 -2 50 1 37 6 -19 7 -18 8 5 21 14 7 27 17 30 21
3 5 17 10 30 12 18 3 24 10 22 23 -2 16 -1 17 7 4 9 -12 11 -13 11 -1 0 8 2
12 5 9 10 -10 -7 -37 -28 -44 -12 -4 -22 -5 -23 -3 0 2 -8 -2 -17 -10 -24 -19
-21 -38 5 -37 14 1 24 -6 26 -16 3 -13 -1 -16 -15 -12 -14 5 -15 4 -4 -4 8 -6
20 -8 28 -5 8 3 13 -3 13 -17 0 -19 -2 -20 -15 -10 -13 10 -15 9 -15 -9 0 -13
6 -21 18 -21 14 0 15 -2 2 -9 -8 -6 -19 -7 -25 -3 -5 3 -5 -1 2 -9 16 -20 15
-29 -9 -66 -11 -18 -17 -33 -14 -33 14 0 21 6 18 15 -1 6 6 -1 17 -15 18 -22
19 -26 5 -37 -9 -7 -11 -13 -5 -17 6 -4 8 -13 4 -22 -4 -10 -9 -12 -18 -4 -6
5 -15 7 -18 3 -13 -12 -7 -21 18 -26 25 -4 53 22 38 37 -3 3 0 6 8 6 8 0 21
-16 28 -36 11 -31 11 -38 -4 -54 -11 -12 -13 -20 -6 -25 6 -3 11 -15 11 -26 0
-11 5 -17 10 -14 6 3 10 -1 10 -10 0 -9 -4 -13 -10 -10 -5 3 -10 0 -10 -9 0
-8 -5 -16 -12 -18 -7 -3 2 -11 20 -19 33 -14 45 -33 15 -22 -15 5 -16 3 -5 -8
15 -16 16 -43 1 -33 -6 3 -21 2 -32 -4 -44 -22 -113 -30 -132 -15 -11 7 -24
13 -29 13 -6 0 -4 -5 4 -11 12 -9 12 -10 -3 -5 -10 3 -29 6 -42 6 -16 0 -24 7
-27 25 -4 20 -3 23 8 14 21 -18 40 -4 38 27 -1 21 -6 28 -18 26 -9 -2 -16 4
-16 13 0 9 -6 15 -12 12 -19 -6 -16 -43 4 -39 9 1 18 -6 21 -18 5 -21 -7 -28
-18 -10 -12 19 -30 10 -43 -20 -8 -16 -20 -30 -29 -30 -12 0 -12 2 1 16 14 13
14 18 1 37 -8 12 -15 27 -15 32 -2 14 -32 6 -46 -13 -11 -15 -13 -15 -28 0
-22 22 -20 31 4 25 15 -4 20 0 20 16 0 17 -2 19 -9 8 -5 -7 -14 -10 -20 -7 -6
4 -9 12 -6 17 4 5 0 9 -8 9 -8 0 -18 -7 -21 -16 -3 -8 -2 -12 4 -9 6 3 10 1
10 -5 0 -15 -27 -24 -47 -15 -27 12 -127 13 -134 2 -4 -5 -14 4 -23 21 -12 23
-13 32 -3 35 9 4 9 7 -1 18 -11 12 -14 12 -23 -1 -8 -12 -9 -10 -4 8 4 14 2
22 -6 22 -7 0 -9 3 -6 7 4 3 15 -2 26 -11 32 -29 73 -28 95 2 11 15 16 24 11
20 -4 -4 -15 -2 -23 5 -13 10 -14 8 -8 -13 l7 -25 -21 24 c-11 13 -24 21 -27
17 -4 -4 -1 -11 7 -16 8 -5 11 -13 6 -17 -4 -4 -16 2 -26 14 -21 26 -84 29
-75 3 4 -8 -4 -5 -18 8 -13 12 -27 22 -33 22 -5 0 -2 -5 6 -11 12 -9 12 -10
-3 -5 -10 3 -23 6 -28 6 -5 0 -9 5 -9 11 0 5 5 7 10 4 6 -3 10 -1 10 5 0 17
-42 26 -110 21 -20 -1 -22 -3 -10 -11 13 -8 12 -10 -2 -10 -10 0 -18 -4 -18
-10 0 -5 -7 -7 -15 -4 -8 4 -15 1 -15 -5 0 -6 -8 -11 -17 -11 -14 0 -12 4 7
25 13 14 18 25 12 25 -11 0 -9 50 3 70 3 6 0 7 -9 4 -9 -3 -16 -9 -16 -13 0
-4 -9 -7 -19 -8 -14 -1 -18 3 -14 13 4 12 0 13 -20 5 -18 -7 -27 -7 -30 2 -2
8 -9 6 -21 -6 -15 -14 -21 -15 -33 -5 -12 10 -17 9 -24 -5 -12 -20 -34 -23
-26 -4 3 8 -3 13 -17 14 -52 3 -80 11 -91 26 -9 12 -14 14 -23 5 -9 -9 -12 -9
-12 -1 0 6 7 18 15 27 8 8 15 19 15 25 0 6 5 11 12 11 6 0 8 3 4 7 -4 5 -14
-1 -22 -11 -19 -26 -18 -17 3 30 9 22 16 43 14 48 -4 18 11 66 20 60 5 -3 9 0
9 6 0 6 8 10 17 8 10 -2 22 7 29 20 6 12 20 33 31 45 15 16 18 28 13 42 -11
27 -12 47 -1 41 4 -3 7 9 5 26 -5 43 -14 49 -14 10 0 -18 -5 -32 -10 -32 -6 0
-8 11 -4 28 9 37 13 42 29 42 9 0 12 6 9 15 -4 8 -10 12 -15 9 -5 -3 -9 0 -9
5 0 6 5 11 10 11 6 0 10 12 10 27 0 24 1 25 13 9 12 -16 13 -15 15 11 1 15 2
48 2 72 0 46 9 52 14 10 6 -51 23 -77 49 -72 19 4 23 10 19 29 -5 30 -10 30
-23 2 -8 -20 -9 -19 -4 7 3 17 8 38 12 49 3 13 1 17 -8 14 -8 -3 -13 -12 -11
-21 1 -8 -1 -18 -6 -21 -5 -3 -8 5 -7 17 2 21 -15 48 -25 42 -3 -2 -4 14 -2
36 5 46 23 42 19 -4 -2 -29 1 -32 27 -32 23 0 30 5 31 22 1 18 -2 20 -16 12
-14 -7 -19 -4 -25 13 -5 16 0 27 17 41 18 14 20 20 10 27 -24 14 9 40 37 29
13 -5 27 -7 32 -4 5 3 11 2 14 -3 3 -5 24 -7 48 -6 24 2 49 3 56 3 6 1 12 9
13 19 0 14 2 14 7 2 10 -22 42 -22 42 1 0 12 -5 16 -15 13 -11 -4 -13 -2 -10
9 6 15 55 21 55 6 0 -5 -4 -9 -10 -9 -5 0 -10 -7 -10 -15 0 -21 17 -19 29 3
19 36 -34 58 -68 29 -13 -11 -22 -11 -51 -1 -24 9 -29 13 -15 14 l20 1 -20 9
c-17 7 -14 9 14 9 29 1 32 -1 21 -14 -17 -20 4 -20 24 1 25 24 19 39 -20 58
-20 9 -35 19 -32 21 7 7 48 -7 48 -16 0 -10 31 -12 55 -3 14 6 14 8 -1 25 -9
11 -24 19 -33 19 -11 0 -12 3 -3 12 9 9 17 7 34 -8 50 -42 87 -64 93 -53 4 6
5 11 4 12 -2 2 -22 12 -44 23 -22 12 -39 26 -37 32 1 7 -4 12 -11 12 -8 0 -14
7 -14 15 0 8 3 12 7 10 3 -2 12 0 20 6 21 12 22 11 11 -8z m657 -62 c-9 -15
-15 -17 -25 -9 -20 16 -15 28 12 28 22 0 24 -2 13 -19z m354 3 c40 -12 24 -87
-25 -118 -24 -16 -144 -46 -182 -46 -31 0 -82 51 -90 91 -9 40 17 69 72 80 37
7 191 3 225 -7z m-1167 -14 c17 -7 15 -9 -12 -9 -18 -1 -33 4 -33 9 0 12 17
12 45 0z m405 -15 c21 -26 6 -35 -17 -10 -14 16 -17 25 -8 25 7 0 18 -7 25
-15z m-445 -35 c-3 -5 2 -10 11 -10 15 0 16 -2 5 -12 -11 -10 -14 -10 -18 0
-3 6 -9 12 -15 12 -6 0 -8 -6 -5 -13 3 -8 1 -20 -5 -28 -8 -11 -9 -11 -5 3 3
9 1 19 -6 22 -8 3 -6 10 7 20 22 18 40 21 31 6z m-15 -79 c0 -5 -7 -11 -15
-15 -15 -5 -20 5 -8 17 9 10 23 9 23 -2z m-105 -29 c-3 -8 0 -19 7 -23 7 -4 9
-11 5 -16 -11 -10 -27 17 -27 45 0 14 4 21 11 17 6 -4 8 -14 4 -23z m1329 -6
c-3 -7 -18 -13 -35 -13 -19 0 -25 3 -17 9 7 4 21 8 31 8 11 0 15 4 11 12 -4 7
-3 8 4 4 6 -4 9 -12 6 -20z m-740 -11 c-24 -18 -31 -18 -37 -2 -3 8 6 13 26
14 28 2 29 2 11 -12z m32 -20 c-10 -8 -23 -12 -29 -8 -5 3 1 12 14 19 30 15
41 7 15 -11z m684 -5 c0 -5 -6 -10 -14 -10 -8 0 -18 5 -21 10 -3 6 3 10 14 10
12 0 21 -4 21 -10z m-137 -7 c4 -3 -2 -13 -14 -21 -24 -17 -37 -9 -19 13 14
16 23 19 33 8z m56 -11 c-7 -3 -22 -11 -31 -19 -9 -8 -23 -13 -30 -10 -8 3 -2
9 15 17 15 7 27 17 27 21 0 5 8 5 17 2 14 -5 14 -8 2 -11z m51 -17 c-7 -8 -19
-15 -27 -15 -13 0 -13 3 -3 15 7 8 19 15 27 15 13 0 13 -3 3 -15z m-54 -27 c5
-8 2 -9 -9 -5 -10 3 -17 2 -17 -4 0 -6 -5 -7 -10 -4 -6 4 -8 11 -5 16 8 13 32
11 41 -3z m-701 -44 c65 -31 106 -70 146 -139 39 -68 39 -95 -1 -95 -80 0
-220 153 -220 241 0 25 9 24 75 -7z m497 2 c8 -8 23 -16 34 -19 10 -2 1 -5
-21 -5 -22 0 -34 2 -27 5 6 2 10 9 7 13 -3 5 -12 7 -20 3 -8 -3 -15 0 -15 6 0
15 26 14 42 -3z m-1075 -78 c-3 -7 -5 -2 -5 12 0 14 2 19 5 13 2 -7 2 -19 0
-25z m1032 -4 c16 -16 -104 -254 -129 -254 -14 0 -12 67 5 152 27 133 20 121
73 113 26 -4 49 -9 51 -11z m199 -9 c-3 -3 -9 2 -12 12 -6 14 -5 15 5 6 7 -7
10 -15 7 -18z m-768 5 c0 -5 -4 -10 -10 -10 -5 0 -10 5 -10 10 0 6 5 10 10 10
6 0 10 -4 10 -10z m660 4 c0 -3 -16 -44 -36 -92 -36 -89 -75 -149 -100 -159
-27 -10 -25 5 11 63 19 33 42 82 51 109 24 72 32 85 54 85 11 0 20 -3 20 -6z
m90 -29 c0 -8 -4 -16 -9 -19 -5 -3 -8 5 -7 18 1 25 16 26 16 1z m259 -19 c13
-14 25 -43 29 -72 l7 -49 73 -2 c78 -2 141 -18 144 -36 0 -7 3 -23 5 -37 14
-96 14 -116 -1 -129 -9 -8 -16 -26 -16 -42 0 -53 -76 -77 -141 -43 -29 15 -30
16 -15 38 16 26 12 36 -15 36 -28 0 -31 15 -9 43 26 32 25 36 -6 47 l-26 10
22 35 c24 40 15 45 -24 14 -28 -22 -34 -60 -12 -78 11 -9 12 -18 3 -41 -9 -24
-8 -32 6 -48 9 -10 17 -30 17 -45 0 -15 9 -32 20 -40 17 -11 19 -19 11 -38 -5
-13 -10 -18 -10 -11 -1 6 -5 12 -11 12 -5 0 -7 -7 -3 -16 5 -14 3 -15 -18 -3
-13 7 -31 12 -39 11 -12 -1 -11 1 2 10 15 11 12 14 -25 23 -26 7 -47 8 -54 2
-10 -7 -12 10 -7 79 3 49 9 107 14 129 5 22 10 82 10 133 0 129 20 160 69 108z
m-299 -46 c-12 -30 -30 -32 -30 -4 0 8 4 13 9 10 5 -3 11 4 14 16 4 12 9 19
13 15 4 -3 1 -20 -6 -37z m-39 -58 c-6 -2 -8 -9 -5 -14 4 -7 2 -8 -4 -4 -9 5
-8 12 1 27 7 12 13 15 16 7 2 -7 -1 -14 -8 -16z m-531 -13 c0 -5 -5 -9 -11 -9
-5 0 -7 5 -4 10 3 6 1 10 -4 10 -6 0 -11 5 -11 11 0 8 5 8 15 -1 8 -7 15 -16
15 -21z m-660 -50 c0 -6 -4 -7 -10 -4 -5 3 -10 11 -10 16 0 6 5 7 10 4 6 -3
10 -11 10 -16z m-6 -30 c4 6 11 11 17 11 5 0 4 -9 -3 -19 -8 -14 -16 -17 -24
-10 -8 6 -14 4 -18 -7 -4 -9 -9 -14 -12 -11 -3 3 0 14 7 26 8 12 16 16 20 10
5 -8 9 -8 13 0z m-20 -64 c-4 -8 -12 -15 -20 -15 -20 0 -17 18 4 23 9 3 18 5
19 6 1 0 0 -6 -3 -14z m1136 -36 c11 -19 10 -20 -9 -10 -27 15 -36 31 -17 31
8 0 20 -9 26 -21z m19 -141 c0 -18 -3 -27 -6 -20 -2 6 -9 10 -14 6 -13 -7 -11
3 3 26 17 27 18 26 17 -12z m364 -29 c7 -1 1 -4 -13 -8 -16 -4 -25 -14 -25
-26 0 -11 -8 -21 -18 -23 -9 -2 -17 -8 -17 -14 0 -5 7 -7 16 -4 9 3 20 6 25 6
5 0 9 9 9 19 0 11 5 23 11 27 8 4 9 0 4 -15 -6 -20 9 -31 17 -12 5 15 48 24
48 10 0 -7 -3 -9 -7 -6 -8 8 -33 -12 -33 -26 0 -7 4 -7 12 1 9 9 15 7 25 -6
13 -15 14 -15 9 0 -6 21 15 30 32 12 7 -8 8 -14 2 -14 -5 0 -10 -9 -10 -19 0
-11 -4 -22 -9 -26 -6 -3 -4 -20 5 -41 8 -20 10 -33 5 -29 -6 3 -11 2 -11 -4 0
-5 5 -13 10 -16 6 -3 10 -11 10 -16 0 -5 -11 -2 -24 8 -14 10 -21 22 -16 27 5
5 5 17 -1 28 -6 11 -8 31 -5 44 5 18 3 22 -8 18 -15 -6 -15 -40 -1 -76 4 -11
3 -18 -5 -18 -7 0 -6 -5 4 -15 8 -8 19 -15 25 -15 6 0 11 -7 11 -15 0 -8 -7
-15 -16 -15 -8 0 -12 5 -9 10 3 6 2 10 -4 10 -17 0 -24 -22 -10 -30 9 -6 2
-11 -22 -18 -19 -5 -33 -14 -31 -21 2 -9 -3 -9 -20 0 -22 11 -22 11 -6 -7 15
-17 15 -20 0 -34 -14 -13 -15 -12 -9 3 7 18 -7 24 -18 8 -3 -6 -18 -6 -38 0
-17 5 -33 9 -34 9 -1 0 -4 -10 -6 -22 -4 -20 -4 -20 -6 4 0 15 3 29 8 32 5 3
7 24 4 46 -5 33 -3 40 11 40 9 0 16 7 16 15 0 8 5 15 10 15 6 0 10 -7 10 -15
0 -8 5 -15 10 -15 15 0 12 16 -6 31 -14 11 -18 10 -30 -6 -11 -15 -14 -16 -14
-3 0 20 26 42 39 34 6 -4 6 5 -1 25 -9 25 -7 38 6 65 9 19 16 45 16 59 0 24
21 36 48 29 8 -2 19 -4 25 -5z m-383 -14 c0 -8 -4 -15 -10 -15 -5 0 -10 7 -10
15 0 8 5 15 10 15 6 0 10 -7 10 -15z m30 -54 c0 -45 -6 -37 -14 19 -4 31 -3
40 4 30 5 -8 10 -30 10 -49z m-1257 -3 c-13 -6 -23 -15 -23 -20 0 -11 17 -10
25 2 3 6 15 10 26 10 10 0 19 -4 19 -10 0 -5 -7 -10 -15 -10 -9 0 -18 -7 -21
-15 -4 -8 -16 -15 -29 -15 -19 0 -22 4 -18 23 9 40 10 43 34 44 l24 1 -22 -10z
m106 -24 c24 -12 35 -13 45 -4 10 7 16 8 21 0 3 -5 -2 -10 -12 -10 -17 -1 -17
-1 1 -15 22 -17 38 -11 29 10 -3 8 0 15 6 15 13 0 15 -46 2 -54 -4 -3 -6 -18
-3 -33 4 -24 3 -25 -10 -12 -10 9 -12 16 -6 20 13 8 -50 69 -72 69 -18 0 -11
-20 8 -21 10 0 12 -3 4 -6 -6 -2 -10 -9 -6 -14 3 -5 1 -9 -4 -9 -6 0 -12 7
-16 15 -3 8 -10 15 -16 15 -6 0 -8 -4 -5 -10 9 -15 -11 -12 -24 4 -9 11 -7 15
9 19 13 3 18 10 14 21 -8 20 -5 20 35 0z m210 -36 c-1 -31 -1 -31 -8 -8 -5 14
-6 28 -4 33 9 15 13 6 12 -25z m1401 -10 c0 -21 -3 -29 -10 -22 -5 5 -7 19 -4
32 9 31 14 27 14 -10z m-1566 -14 c8 -21 8 -24 -5 -24 -5 0 -7 5 -4 10 3 6 1
10 -4 10 -6 0 -11 5 -11 10 0 16 17 12 24 -6z m309 -1 c-7 -2 -21 -2 -30 0
-10 3 -4 5 12 5 17 0 24 -2 18 -5z m-163 -35 c0 -16 -3 -19 -11 -11 -6 6 -8
16 -5 22 11 17 16 13 16 -11z m988 -49 c-3 -8 -7 -3 -11 10 -4 17 -3 21 5 13
5 -5 8 -16 6 -23z m168 -76 c-11 -11 -17 4 -9 23 7 18 8 18 11 1 2 -10 1 -21
-2 -24z m-166 1 c0 -8 -5 -12 -10 -9 -6 4 -8 11 -5 16 9 14 15 11 15 -7z m160
-18 c0 -3 -4 -8 -10 -11 -5 -3 -10 -1 -10 4 0 6 5 11 10 11 6 0 10 -2 10 -4z
m-500 -16 c0 -5 -6 -10 -12 -10 -9 0 -8 -3 2 -10 8 -5 11 -12 7 -16 -3 -4 -13
-1 -22 6 -12 10 -13 16 -4 26 13 16 29 18 29 4z m600 -21 c0 -5 -11 -9 -25 -9
-14 0 -25 4 -25 9 0 5 11 9 25 9 14 0 25 -4 25 -9z m-230 -42 c0 -10 -10 -12
-32 -8 l-33 5 30 7 c17 4 31 7 33 8 1 0 2 -5 2 -12z"/>
<path d="M2260 3385 c14 -16 40 -20 40 -6 0 9 -24 21 -42 21 -6 0 -6 -6 2 -15z"/>
<path d="M2416 3371 c-16 -17 -16 -19 0 -25 16 -6 44 9 44 24 0 17 -29 18 -44
1z"/>
<path d="M2220 3369 c0 -6 6 -9 14 -6 9 4 16 -4 21 -21 6 -24 8 -25 17 -9 7
13 6 22 -2 33 -15 17 -50 19 -50 3z"/>
<path d="M2500 3350 c0 -5 7 -10 16 -10 8 0 12 5 9 10 -3 6 -10 10 -16 10 -5
0 -9 -4 -9 -10z"/>
<path d="M2640 3344 c0 -8 5 -12 10 -9 6 3 10 10 10 16 0 5 -4 9 -10 9 -5 0
-10 -7 -10 -16z"/>
<path d="M2710 3304 c0 -9 23 -30 47 -43 19 -9 22 -9 17 3 -8 22 -64 57 -64
40z"/>
<path d="M1940 3272 c0 -4 8 -12 18 -18 13 -9 20 -8 30 2 6 7 8 15 3 19 -5 3
-12 -1 -15 -7 -5 -10 -7 -10 -12 0 -6 13 -24 17 -24 4z"/>
<path d="M1932 3245 c16 -17 16 -19 0 -31 -9 -7 -14 -15 -10 -19 3 -4 15 2 26
13 l21 21 -27 17 c-26 16 -26 16 -10 -1z"/>
<path d="M1891 3231 c-10 -7 -10 -10 -1 -16 6 -4 16 -3 22 3 13 13 -4 23 -21
13z"/>
<path d="M1776 3111 c-4 -7 -5 -15 -2 -18 9 -9 19 4 14 18 -4 11 -6 11 -12 0z"/>
<path d="M2565 3071 c-3 -5 -1 -12 5 -16 5 -3 10 1 10 9 0 18 -6 21 -15 7z"/>
<path d="M1875 3020 c3 -5 8 -10 11 -10 2 0 4 5 4 10 0 6 -5 10 -11 10 -5 0
-7 -4 -4 -10z"/>
<path d="M2342 3008 c-15 -15 -16 -48 -1 -48 6 0 8 8 4 19 -4 14 -1 20 12 23
11 2 14 6 7 10 -6 4 -16 2 -22 -4z"/>
<path d="M2470 2999 c0 -5 5 -7 10 -4 6 3 10 8 10 11 0 2 -4 4 -10 4 -5 0 -10
-5 -10 -11z"/>
<path d="M2536 2984 c-8 -21 -8 -24 5 -24 5 0 7 5 4 10 -3 6 -1 10 4 10 6 0
11 5 11 10 0 16 -17 12 -24 -6z"/>
<path d="M2540 2942 c0 -12 19 -26 26 -19 2 2 -2 10 -11 17 -9 8 -15 8 -15 2z"/>
<path d="M2300 2910 c0 -5 7 -10 15 -10 8 0 15 -4 15 -10 0 -5 -3 -10 -7 -10
-5 0 -14 -12 -20 -27 -11 -22 -10 -28 5 -39 17 -13 32 -10 32 7 0 5 -7 9 -15
9 -8 0 -15 5 -15 10 0 6 5 10 10 10 6 0 10 7 10 15 0 8 6 12 14 9 8 -3 17 0
22 7 4 7 3 10 -4 5 -6 -3 -16 3 -22 14 -11 21 -40 28 -40 10z"/>
<path d="M2490 2911 c0 -6 5 -13 10 -16 6 -3 10 1 10 9 0 9 -4 16 -10 16 -5 0
-10 -4 -10 -9z"/>
<path d="M2340 2850 c0 -5 5 -10 10 -10 6 0 10 5 10 10 0 6 -4 10 -10 10 -5 0
-10 -4 -10 -10z"/>
<path d="M2247 2813 c-13 -13 -7 -21 13 -16 11 3 17 9 14 14 -6 11 -18 12 -27
2z"/>
<path d="M2283 2793 c-17 -6 -16 -20 2 -27 8 -3 14 -2 14 2 -4 27 4 21 19 -13
12 -25 21 -35 26 -27 4 7 2 12 -3 12 -15 0 -14 30 2 30 7 0 4 7 -7 15 -20 15
-32 17 -53 8z"/>
<path d="M2498 2793 c7 -3 16 -2 19 1 4 3 -2 6 -13 5 -11 0 -14 -3 -6 -6z"/>
<path d="M2225 2720 c3 -5 11 -10 16 -10 6 0 7 5 4 10 -3 6 -11 10 -16 10 -6
0 -7 -4 -4 -10z"/>
<path d="M2577 2669 c4 -13 8 -18 11 -10 2 7 -1 18 -6 23 -8 8 -9 4 -5 -13z"/>
<path d="M2615 2670 c10 -11 20 -18 23 -16 5 6 -23 36 -34 36 -4 0 1 -9 11
-20z"/>
<path d="M2400 2628 c0 -4 7 -8 15 -8 8 0 15 -4 15 -10 0 -5 4 -10 9 -10 5 0
8 8 7 17 -3 16 -46 27 -46 11z"/>
<path d="M2320 2621 c0 -9 41 -23 48 -16 2 2 1 8 -3 14 -8 13 -45 15 -45 2z"/>
<path d="M2640 2615 c12 -15 30 -12 30 6 0 5 -10 9 -21 9 -18 0 -19 -2 -9 -15z"/>
<path d="M2387 2605 c3 -8 9 -12 14 -9 12 7 11 11 -5 17 -10 4 -13 1 -9 -8z"/>
<path d="M2325 2590 c7 -11 45 -33 45 -26 0 2 -7 12 -16 20 -17 18 -39 22 -29
6z"/>
<path d="M2755 2550 c-3 -5 -1 -10 4 -10 6 0 11 5 11 10 0 6 -2 10 -4 10 -3 0
-8 -4 -11 -10z"/>
<path d="M2495 2540 c-3 -5 -1 -10 4 -10 6 0 11 5 11 10 0 6 -2 10 -4 10 -3 0
-8 -4 -11 -10z"/>
<path d="M2530 2541 c0 -6 4 -13 10 -16 6 -3 7 1 4 9 -7 18 -14 21 -14 7z"/>
<path d="M1999 3098 c-28 -45 -22 -115 14 -162 35 -45 110 -64 160 -42 63 29
72 42 72 104 -1 44 -6 66 -23 90 -29 40 -39 40 -47 2 -16 -72 -116 -66 -131 9
-8 40 -19 39 -45 -1z"/>
<path d="M1725 2870 c-3 -5 -1 -10 4 -10 6 0 11 5 11 10 0 6 -2 10 -4 10 -3 0
-8 -4 -11 -10z"/>
<path d="M1700 2843 c0 -10 -3 -29 -7 -42 -4 -16 -2 -22 4 -18 14 9 22 66 11
73 -4 3 -8 -3 -8 -13z"/>
<path d="M1939 2798 c-6 -23 -6 -59 0 -52 15 16 23 54 12 54 -6 0 -11 -1 -12
-2z"/>
<path d="M2134 2785 c26 -19 42 -19 26 0 -7 8 -20 15 -29 15 -13 -1 -13 -3 3
-15z"/>
<path d="M1906 2765 c-9 -26 -7 -32 5 -12 6 10 9 21 6 23 -2 3 -7 -2 -11 -11z"/>
<path d="M1655 2599 c-10 -15 3 -25 16 -12 7 7 7 13 1 17 -6 3 -14 1 -17 -5z"/>
<path d="M1955 2570 c-4 -6 3 -10 14 -10 25 0 27 6 6 13 -8 4 -17 2 -20 -3z"/>
<path d="M1887 2556 c-3 -8 2 -16 12 -19 11 -3 17 2 17 14 0 22 -21 25 -29 5z"/>
<path d="M1960 2540 c0 -5 5 -10 10 -10 6 0 10 5 10 10 0 6 -4 10 -10 10 -5 0
-10 -4 -10 -10z"/>
<path d="M1884 2508 c-5 -8 -2 -9 9 -5 10 3 17 2 17 -4 0 -6 5 -7 10 -4 6 4 8
11 5 16 -8 13 -32 11 -41 -3z"/>
<path d="M1941 2503 c-9 -19 4 -39 26 -38 19 0 25 12 18 34 -8 26 -31 27 -44
4z"/>
<path d="M1926 2444 c-8 -22 1 -31 16 -16 9 9 9 15 1 23 -7 7 -12 5 -17 -7z"/>
<path d="M1601 2366 c-6 -7 -6 -17 -1 -26 11 -17 62 -3 66 18 1 7 0 8 -3 2 -6
-14 -24 -13 -20 1 3 16 -30 20 -42 5z"/>
<path d="M1583 2315 c0 -6 12 -9 29 -7 15 2 28 5 28 7 0 2 -13 5 -28 7 -17 2
-29 -1 -29 -7z"/>
<path d="M1575 2280 c-3 -5 -1 -10 4 -10 6 0 11 5 11 10 0 6 -2 10 -4 10 -3 0
-8 -4 -11 -10z"/>
<path d="M1600 2261 c0 -17 2 -31 4 -31 8 0 13 51 5 56 -5 3 -9 -9 -9 -25z"/>
<path d="M2199 2209 c-20 -15 -21 -19 -6 -19 9 0 17 4 17 9 0 5 10 11 23 13
17 2 18 5 6 10 -8 3 -26 -2 -40 -13z"/>
<path d="M1577 2193 c-4 -24 -4 -25 7 -10 7 9 17 13 22 9 4 -4 2 1 -5 11 -17
22 -18 22 -24 -10z"/>
<path d="M1619 2207 c6 -8 7 -18 3 -22 -4 -5 -2 -5 5 -1 14 8 6 36 -9 36 -7 0
-6 -5 1 -13z"/>
<path d="M2384 2204 c5 -14 4 -15 -8 -5 -11 9 -15 8 -20 -5 -3 -8 -6 -23 -6
-32 1 -16 2 -15 14 1 17 22 21 22 23 -2 1 -14 -6 -21 -25 -23 -24 -4 -25 -5
-8 -13 11 -5 28 -17 38 -27 28 -28 45 -21 18 7 -14 15 -18 25 -10 25 7 0 18
-7 25 -17 7 -10 14 -12 18 -6 4 6 -4 18 -18 27 -29 19 -33 38 -7 30 16 -5 16
-4 -1 9 -12 10 -14 17 -7 22 14 8 3 25 -17 25 -10 0 -13 -6 -9 -16z"/>
<path d="M2265 2200 c-3 -5 -1 -10 4 -10 6 0 11 5 11 10 0 6 -2 10 -4 10 -3 0
-8 -4 -11 -10z"/>
<path d="M1540 2141 c0 -7 -7 -19 -15 -27 -22 -22 -19 -40 3 -21 10 10 21 15
24 12 2 -3 4 4 3 15 -1 22 -15 41 -15 21z"/>
<path d="M1575 2130 c3 -5 8 -10 11 -10 2 0 4 5 4 10 0 6 -5 10 -11 10 -5 0
-7 -4 -4 -10z"/>
<path d="M2480 2120 c0 -5 5 -10 10 -10 6 0 10 5 10 10 0 6 -4 10 -10 10 -5 0
-10 -4 -10 -10z"/>
<path d="M2346 2102 c-3 -6 3 -12 15 -15 12 -3 19 -1 16 6 -5 15 -24 20 -31 9z"/>
<path d="M1446 2020 c3 -14 11 -32 16 -40 6 -10 7 -7 2 10 -3 14 -11 32 -16
40 -6 10 -7 7 -2 -10z"/>
<path d="M2571 2014 c0 -11 3 -14 6 -6 3 7 2 16 -1 19 -3 4 -6 -2 -5 -13z"/>
<path d="M1570 1981 c0 -6 5 -13 10 -16 6 -3 10 1 10 9 0 9 -4 16 -10 16 -5 0
-10 -4 -10 -9z"/>
<path d="M1600 1974 c0 -8 5 -12 10 -9 6 3 10 10 10 16 0 5 -4 9 -10 9 -5 0
-10 -7 -10 -16z"/>
<path d="M1891 1924 c0 -11 3 -14 6 -6 3 7 2 16 -1 19 -3 4 -6 -2 -5 -13z"/>
<path d="M1675 1921 c-3 -5 -1 -12 5 -16 5 -3 10 1 10 9 0 18 -6 21 -15 7z"/>
<path d="M1486 1892 c-3 -6 -1 -14 5 -17 15 -10 25 3 12 16 -7 7 -13 7 -17 1z"/>
<path d="M1876 1835 c-19 -29 -14 -45 12 -38 11 2 17 13 17 29 -2 35 -10 38
-29 9z"/>
<path d="M1813 1843 c9 -2 23 -2 30 0 6 3 -1 5 -18 5 -16 0 -22 -2 -12 -5z"/>
<path d="M2576 1834 c-9 -24 -2 -26 12 -4 7 11 8 20 3 20 -5 0 -12 -7 -15 -16z"/>
<path d="M1750 1818 c0 -9 5 -20 11 -23 15 -10 79 4 79 17 0 6 -13 8 -36 3
-26 -4 -39 -2 -45 7 -7 10 -9 9 -9 -4z"/>
<path d="M2640 1769 c0 -9 7 -22 15 -29 19 -16 19 0 0 26 -12 16 -14 16 -15 3z"/>
<path d="M2600 1741 c0 -7 7 -14 15 -17 16 -7 21 -34 5 -34 -5 0 -14 9 -20 20
-6 11 -15 18 -21 15 -5 -4 -4 -15 3 -28 7 -12 13 -24 14 -27 0 -3 4 -13 8 -22
5 -10 6 -25 2 -33 -8 -23 8 -18 33 9 18 19 21 28 12 43 -9 16 -10 16 -11 1 0
-9 -4 -19 -9 -22 -10 -7 -8 21 4 48 9 20 -3 47 -23 54 -7 2 -12 -1 -12 -7z"/>
<path d="M2050 1645 c0 -8 5 -15 10 -15 6 0 10 7 10 15 0 8 -4 15 -10 15 -5 0
-10 -7 -10 -15z"/>
<path d="M2080 1646 c0 -9 5 -16 10 -16 6 0 10 4 10 9 0 6 -4 13 -10 16 -5 3
-10 -1 -10 -9z"/>
<path d="M2377 1623 c-12 -12 -7 -33 7 -33 8 0 13 7 12 15 -3 19 -11 27 -19
18z"/>
<path d="M2581 1570 c-1 -9 5 -22 11 -28 10 -10 10 -15 -2 -22 -8 -5 -10 -10
-5 -10 6 0 16 4 24 9 10 6 10 10 1 16 -6 4 -15 17 -20 29 -6 13 -9 15 -9 6z"/>
<path d="M2630 1573 c0 -6 4 -14 10 -18 5 -3 7 -13 4 -23 -4 -10 -3 -13 3 -6
4 6 15 14 23 17 12 4 12 6 -2 6 -9 1 -22 9 -27 19 -6 9 -11 12 -11 5z"/>
<path d="M2920 1804 c0 -8 5 -12 10 -9 6 4 8 11 5 16 -9 14 -15 11 -15 -7z"/>
<path d="M3010 1766 c0 -2 8 -10 18 -17 15 -13 16 -12 3 4 -13 16 -21 21 -21
13z"/>
<path d="M2890 1641 c0 -6 4 -13 10 -16 6 -3 7 1 4 9 -7 18 -14 21 -14 7z"/>
<path d="M2910 1600 c0 -5 9 -10 20 -10 11 0 20 5 20 10 0 6 -9 10 -20 10 -11
0 -20 -4 -20 -10z"/>
<path d="M3478 725 c-2 -2 -46 -9 -97 -16 -94 -12 -138 -33 -128 -62 6 -20 49
-37 93 -37 29 0 44 -5 48 -16 10 -25 7 -212 -5 -304 -9 -76 -8 -86 9 -109 25
-33 46 -37 70 -13 23 23 31 86 37 297 l5 150 61 5 c45 4 64 10 75 24 18 25 18
37 0 61 -11 16 -28 20 -89 21 -42 1 -77 1 -79 -1z"/>
<path d="M1019 698 c-42 -47 -159 -378 -159 -447 0 -29 5 -40 23 -48 12 -6 31
-7 43 -3 22 9 29 24 64 140 48 161 67 203 81 178 6 -11 35 -158 54 -271 12
-75 84 -87 111 -19 29 72 128 272 135 272 9 0 18 -55 33 -218 15 -154 26 -182
72 -182 41 0 54 35 44 115 -17 137 -30 281 -30 340 0 97 -29 133 -95 121 -51
-10 -84 -47 -135 -151 -22 -47 -44 -85 -49 -85 -4 0 -18 42 -31 93 -34 142
-64 187 -120 187 -12 0 -30 -10 -41 -22z"/>
<path d="M2949 670 c-8 -5 -22 -27 -29 -50 -18 -55 2 -477 25 -499 21 -21 189
-14 236 10 26 13 30 48 9 69 -16 16 -24 17 -62 8 -23 -6 -56 -12 -73 -12 l-30
-1 0 75 0 74 31 2 c90 4 136 47 95 87 -19 19 -25 20 -73 10 -29 -6 -56 -8 -60
-5 -3 4 -8 34 -10 67 l-3 60 81 5 c87 5 114 18 114 56 0 41 -34 54 -140 54
-52 0 -102 -5 -111 -10z"/>
<path d="M1652 658 c-62 -77 -31 -403 47 -492 52 -59 177 -76 241 -32 68 46
136 222 147 382 5 74 4 83 -16 103 -26 26 -45 27 -71 1 -15 -15 -20 -33 -20
-78 0 -114 -62 -296 -109 -318 -29 -15 -81 -2 -96 23 -34 59 -43 111 -44 254
-1 98 -5 149 -13 157 -16 16 -53 15 -66 0z"/>
<path d="M2195 617 c-32 -32 -35 -39 -35 -96 0 -99 38 -166 110 -197 61 -27
65 -30 68 -64 4 -43 -13 -76 -48 -90 -21 -9 -36 -7 -76 8 -57 22 -80 19 -88
-11 -14 -57 45 -102 135 -102 105 0 179 78 179 187 0 75 -26 113 -100 146 -51
24 -62 33 -79 74 -25 56 -25 53 -7 71 13 12 23 12 74 -1 70 -19 92 -9 92 39 0
41 -36 61 -120 67 -69 5 -70 4 -105 -31z"/>
<path d="M2603 635 c-37 -26 -44 -50 -59 -194 -16 -162 -18 -270 -4 -306 19
-49 106 -68 207 -44 84 20 93 26 93 58 0 44 -26 54 -121 46 l-79 -7 0 66 c0
73 -4 69 89 80 44 4 61 17 61 46 0 34 -18 44 -77 45 l-58 0 -3 34 c-7 68 2 79
68 87 73 8 99 31 82 69 -10 22 -18 25 -66 25 -29 0 -66 2 -82 6 -18 3 -37 -1
-51 -11z"/>
</g>
</svg>
