<svg xmlns="http://www.w3.org/2000/svg" version="1.1" xmlns:xlink="http://www.w3.org/1999/xlink" xmlns:svgjs="http://svgjs.dev/svgjs" width="1500" height="1500" viewBox="0 0 1500 1500"><rect width="1500" height="1500" fill="#ffffff"></rect><g transform="matrix(0.6666666666666666,0,0,0.6666666666666666,249.39393939393938,446.0780195386041)"><svg viewBox="0 0 396 241" data-background-color="#ffffff" preserveAspectRatio="xMidYMid meet" height="912" width="1500" xmlns="http://www.w3.org/2000/svg" xmlns:xlink="http://www.w3.org/1999/xlink"><g id="tight-bounds" transform="matrix(1,0,0,1,0.2400000000000091,-0.03092550790064763)"><svg viewBox="0 0 395.52 241.0618510158013" height="241.0618510158013" width="395.52"><g><svg viewBox="0 0 395.52 241.0618510158013" height="241.0618510158013" width="395.52"><g><svg viewBox="0 0 395.52 241.0618510158013" height="241.0618510158013" width="395.52"><g id="textblocktransform"><svg viewBox="0 0 395.52 241.0618510158013" height="241.0618510158013" width="395.52" id="textblock"><g><svg viewBox="0 0 395.52 241.0618510158013" height="241.0618510158013" width="395.52"><g transform="matrix(1,0,0,1,0,0)"><svg width="395.52" viewBox="54.85 -35 221.49999999999997 125.6" height="241.0618510158013" data-palette-color="#1f55b3"><svg></svg><svg></svg><svg></svg><g class="wordmark-text-0" data-fill-palette-color="primary" id="text-0"><path d="M59.15 0h-4.3v-35h7.35l7.9 28.5h0.55l7.9-28.5h7.35v35h-4.35l0.2-29.7h-0.7l-8.2 29.7h-4.95l-8.25-29.7h-0.65zM114.8-11.5v0-23.5h-4.45v23.15c0 1.767-0.31 3.25-0.93 4.45-0.613 1.2-1.453 2.117-2.52 2.75-1.067 0.633-2.3 0.95-3.7 0.95v0c-1.4 0-2.65-0.317-3.75-0.95-1.1-0.633-1.957-1.55-2.57-2.75-0.62-1.2-0.93-2.683-0.93-4.45v0-23.15h-4.45v23.5c0 2.333 0.35 4.273 1.05 5.82 0.7 1.553 1.627 2.787 2.78 3.7 1.147 0.92 2.413 1.57 3.8 1.95 1.38 0.387 2.737 0.58 4.07 0.58v0c1.333 0 2.677-0.193 4.03-0.58 1.347-0.38 2.597-1.03 3.75-1.95 1.147-0.913 2.07-2.147 2.77-3.7 0.7-1.547 1.05-3.487 1.05-5.82zM120.4 0v-35h4.4v31h11.85v4zM140.85 0v-35h4.4v31h11.85v4zM159.1-34.1v-0.9h4.4l4.6 29.75h0.85l4.35-29.75h5.95l4.4 29.75h0.85l4.55-29.75h4.4v0.9l-5.55 34.1h-7.25l-4-28.4h-0.7l-4.05 28.4h-7.2zM199.6 0h-4.5v-0.9l8.5-34.1 9.9 0.05 8.45 34.05v0.9h-4.5l-2.7-11.25h-12.45zM206.8-30.9l-3.7 15.75h10.9l-3.75-15.75zM225.8 0l0.1-35h4.3v35zM227.45-35h10.25c1.967 0 3.717 0.39 5.25 1.17 1.533 0.787 2.74 1.963 3.62 3.53 0.887 1.567 1.33 3.517 1.33 5.85v0c0 2.267-0.46 4.183-1.38 5.75-0.913 1.567-2.12 2.757-3.62 3.57-1.5 0.82-3.133 1.23-4.9 1.23v0h-10.55zM229.9-31v13.25h7.45c1.133 0 2.15-0.25 3.05-0.75 0.9-0.5 1.623-1.243 2.17-2.23 0.553-0.98 0.83-2.153 0.83-3.52v0c0-1.5-0.277-2.75-0.83-3.75-0.547-1-1.27-1.75-2.17-2.25-0.9-0.5-1.917-0.75-3.05-0.75v0zM243.4 0l-7.5-16.35 4.15-0.55 7.85 16.1v0.8zM261.65-35v0h-8.95v35h8.95c2.8 0 5.31-0.627 7.53-1.88 2.213-1.247 3.963-3.163 5.25-5.75 1.28-2.58 1.92-5.87 1.92-9.87v0c0-4.033-0.64-7.333-1.92-9.9-1.287-2.567-3.037-4.477-5.25-5.73-2.22-1.247-4.73-1.87-7.53-1.87zM261.55-4.1v0h-4.45v-26.8h4.45c3.067 0 5.55 1.15 7.45 3.45 1.9 2.3 2.85 5.617 2.85 9.95v0c0 4.233-0.94 7.523-2.82 9.87-1.887 2.353-4.38 3.53-7.48 3.53z" fill="#000000" fill-rule="nonzero" stroke="none" stroke-width="1" stroke-linecap="butt" stroke-linejoin="miter" stroke-miterlimit="10" stroke-dasharray="" stroke-dashoffset="0" font-family="none" font-weight="none" font-size="none" text-anchor="none" style="mix-blend-mode: normal" data-fill-palette-color="primary" opacity="1"></path><path d="M84.35 45l0.1-35h4.3v35zM86 10h10.25c1.967 0 3.717 0.39 5.25 1.17 1.533 0.787 2.743 1.963 3.63 3.53 0.88 1.567 1.32 3.517 1.32 5.85v0c0 2.267-0.457 4.183-1.37 5.75-0.92 1.567-2.13 2.757-3.63 3.57-1.5 0.82-3.133 1.23-4.9 1.23v0h-10.55zM88.45 14v13.25h7.45c1.133 0 2.15-0.25 3.05-0.75 0.9-0.5 1.627-1.243 2.18-2.23 0.547-0.98 0.82-2.153 0.82-3.52v0c0-1.5-0.273-2.75-0.82-3.75-0.553-1-1.28-1.75-2.18-2.25-0.9-0.5-1.917-0.75-3.05-0.75v0zM101.95 45l-7.5-16.35 4.15-0.55 7.85 16.1v0.8zM113.4 45h-4.5v-0.9l8.5-34.1 9.9 0.05 8.45 34.05v0.9h-4.5l-2.7-11.25h-12.45zM120.6 14.1l-3.7 15.75h10.9l-3.75-15.75zM118.9 7.45v0c-0.567 0-1.073-0.21-1.52-0.63-0.453-0.413-0.68-0.937-0.68-1.57v0c0-0.633 0.227-1.167 0.68-1.6 0.447-0.433 0.953-0.65 1.52-0.65v0c0.567 0 1.077 0.217 1.53 0.65 0.447 0.433 0.67 0.967 0.67 1.6v0c0 0.633-0.223 1.157-0.67 1.57-0.453 0.42-0.963 0.63-1.53 0.63zM125.75 7.5v0c-0.567 0-1.073-0.21-1.52-0.63-0.453-0.413-0.68-0.953-0.68-1.62v0c0-0.6 0.227-1.117 0.68-1.55 0.447-0.433 0.953-0.65 1.52-0.65v0c0.6 0 1.127 0.217 1.58 0.65 0.447 0.433 0.67 0.95 0.67 1.55v0c0 0.667-0.223 1.207-0.67 1.62-0.453 0.42-0.98 0.63-1.58 0.63zM148.55 10v0h-8.95v35h8.95c2.8 0 5.31-0.627 7.53-1.88 2.213-1.247 3.963-3.163 5.25-5.75 1.28-2.58 1.92-5.87 1.92-9.87v0c0-4.033-0.64-7.333-1.92-9.9-1.287-2.567-3.037-4.477-5.25-5.73-2.22-1.247-4.73-1.87-7.53-1.87zM148.45 40.9v0h-4.45v-26.8h4.45c3.067 0 5.55 1.15 7.45 3.45 1.9 2.3 2.85 5.617 2.85 9.95v0c0 4.233-0.943 7.523-2.83 9.87-1.88 2.353-4.37 3.53-7.47 3.53zM176.95 10v0h-8.95v35h8.95c2.8 0 5.31-0.627 7.53-1.88 2.213-1.247 3.963-3.163 5.25-5.75 1.28-2.58 1.92-5.87 1.92-9.87v0c0-4.033-0.64-7.333-1.92-9.9-1.287-2.567-3.037-4.477-5.25-5.73-2.22-1.247-4.73-1.87-7.53-1.87zM176.85 40.9v0h-4.45v-26.8h4.45c3.067 0 5.55 1.15 7.45 3.45 1.9 2.3 2.85 5.617 2.85 9.95v0c0 4.233-0.94 7.523-2.82 9.87-1.887 2.353-4.38 3.53-7.48 3.53zM198.55 45h-4.5v-0.9l8.5-34.1 9.9 0.05 8.45 34.05v0.9h-4.5l-2.7-11.25h-12.45zM205.75 14.1l-3.7 15.75h10.9l-3.75-15.75zM224.75 45l0.1-35h4.3v35zM226.4 10h10.25c1.967 0 3.717 0.39 5.25 1.17 1.533 0.787 2.743 1.963 3.63 3.53 0.88 1.567 1.32 3.517 1.32 5.85v0c0 2.267-0.457 4.183-1.37 5.75-0.92 1.567-2.13 2.757-3.63 3.57-1.5 0.82-3.133 1.23-4.9 1.23v0h-10.55zM228.85 14v13.25h7.45c1.133 0 2.15-0.25 3.05-0.75 0.9-0.5 1.627-1.243 2.18-2.23 0.547-0.98 0.82-2.153 0.82-3.52v0c0-1.5-0.273-2.75-0.82-3.75-0.553-1-1.28-1.75-2.18-2.25-0.9-0.5-1.917-0.75-3.05-0.75v0zM242.35 45l-7.5-16.35 4.15-0.55 7.85 16.1v0.8z" fill="#000000" fill-rule="nonzero" stroke="none" stroke-width="1" stroke-linecap="butt" stroke-linejoin="miter" stroke-miterlimit="10" stroke-dasharray="" stroke-dashoffset="0" font-family="none" font-weight="none" font-size="none" text-anchor="none" style="mix-blend-mode: normal" data-fill-palette-color="primary" opacity="1"></path><path d="M94.17 90h-4.3v-35h7.35l7.9 28.5h0.55l7.9-28.5h7.35v35h-4.35l0.2-29.7h-0.7l-8.2 29.7h-4.95l-8.25-29.7h-0.65zM149.82 78.5v0-23.5h-4.45v23.15c0 1.767-0.31 3.25-0.93 4.45-0.613 1.2-1.453 2.117-2.52 2.75-1.067 0.633-2.3 0.95-3.7 0.95v0c-1.4 0-2.65-0.317-3.75-0.95-1.1-0.633-1.957-1.55-2.57-2.75-0.62-1.2-0.93-2.683-0.93-4.45v0-23.15h-4.45v23.5c0 2.333 0.35 4.273 1.05 5.82 0.7 1.553 1.627 2.787 2.78 3.7 1.147 0.92 2.413 1.57 3.8 1.95 1.38 0.387 2.737 0.58 4.07 0.58v0c1.333 0 2.677-0.193 4.03-0.58 1.347-0.38 2.597-1.03 3.75-1.95 1.147-0.913 2.07-2.147 2.77-3.7 0.7-1.547 1.05-3.487 1.05-5.82zM174.67 81.7v0c0 1.833-0.423 3.417-1.27 4.75-0.853 1.333-2.03 2.357-3.53 3.07-1.5 0.72-3.267 1.08-5.3 1.08v0c-1.6 0-3.073-0.19-4.42-0.57-1.353-0.387-2.507-0.847-3.46-1.38-0.947-0.533-1.653-0.983-2.12-1.35v0-4.3h0.65c1.033 0.9 2.373 1.717 4.02 2.45 1.653 0.733 3.313 1.1 4.98 1.1v0c1.067 0 2.057-0.16 2.97-0.48 0.92-0.313 1.657-0.82 2.21-1.52 0.547-0.7 0.82-1.567 0.82-2.6v0c0-1.3-0.333-2.377-1-3.23-0.667-0.847-1.683-1.687-3.05-2.52v0l-6.05-3.8c-0.933-0.6-1.893-1.293-2.88-2.08-0.98-0.78-1.797-1.747-2.45-2.9-0.647-1.147-0.97-2.553-0.97-4.22v0c0-1.9 0.433-3.5 1.3-4.8 0.867-1.3 2.033-2.283 3.5-2.95 1.467-0.667 3.117-1 4.95-1v0c1.633 0 3.067 0.167 4.3 0.5 1.233 0.333 2.283 0.75 3.15 1.25 0.867 0.5 1.55 1 2.05 1.5v0 4.3h-0.7c-0.833-0.967-2.017-1.793-3.55-2.48-1.533-0.68-3.25-1.02-5.15-1.02v0c-1.567 0-2.86 0.373-3.88 1.12-1.013 0.753-1.52 1.83-1.52 3.23v0c0 1.3 0.45 2.417 1.35 3.35 0.9 0.933 1.983 1.8 3.25 2.6v0l5.6 3.5c1.133 0.7 2.167 1.483 3.1 2.35 0.933 0.867 1.683 1.867 2.25 3 0.567 1.133 0.85 2.483 0.85 4.05zM179.27 55h17.5v4h-13.1v11.9c1.1-0.467 2.343-0.827 3.73-1.08 1.38-0.247 2.787-0.403 4.22-0.47 1.433-0.067 2.733 0 3.9 0.2v0 3.8l-0.4 0.3c-0.9-0.267-2.023-0.4-3.37-0.4-1.353 0-2.747 0.117-4.18 0.35-1.433 0.233-2.733 0.617-3.9 1.15v0 11.25h13.1v4h-17.5zM201.47 55h17.5v4h-13.1v11.9c1.1-0.467 2.343-0.827 3.73-1.08 1.38-0.247 2.787-0.403 4.22-0.47 1.433-0.067 2.733 0 3.9 0.2v0 3.8l-0.4 0.3c-0.9-0.267-2.023-0.4-3.37-0.4-1.353 0-2.747 0.117-4.18 0.35-1.433 0.233-2.733 0.617-3.9 1.15v0 11.25h13.1v4h-17.5zM221.42 55h19.9v4.05h-7.7v30.95h-4.4v-30.95h-7.8z" fill="#000000" fill-rule="nonzero" stroke="none" stroke-width="1" stroke-linecap="butt" stroke-linejoin="miter" stroke-miterlimit="10" stroke-dasharray="" stroke-dashoffset="0" font-family="none" font-weight="none" font-size="none" text-anchor="none" style="mix-blend-mode: normal" data-fill-palette-color="primary" opacity="1"></path></g></svg></g></svg></g></svg></g></svg></g><g></g></svg></g><defs></defs></svg><rect width="395.52" height="241.0618510158013" fill="none" stroke="none" visibility="hidden"></rect></g></svg></g></svg>