<?xml version="1.0" standalone="no"?>
<!DOCTYPE svg PUBLIC "-//W3C//DTD SVG 20010904//EN"
 "http://www.w3.org/TR/2001/REC-SVG-20010904/DTD/svg10.dtd">
<svg version="1.0" xmlns="http://www.w3.org/2000/svg"
 width="500.000000pt" height="500.000000pt" viewBox="0 0 500.000000 500.000000"
 preserveAspectRatio="xMidYMid meet">
<metadata>
Created by potrace 1.14, written by Peter Selinger 2001-2017
</metadata>
<g transform="translate(0.000000,500.000000) scale(0.100000,-0.100000)"
fill="#000000" stroke="none">
<path d="M2282 4862 c-39 -14 -43 -15 -145 -32 -34 -6 -93 -21 -132 -32 -38
-12 -74 -22 -80 -24 -19 -4 -220 -85 -260 -105 -77 -38 -180 -103 -205 -129
-3 -3 -32 -28 -65 -55 -95 -79 -105 -89 -134 -115 -78 -73 -213 -257 -241
-330 -7 -19 -26 -59 -42 -87 -16 -29 -27 -53 -24 -53 2 0 -4 -33 -15 -72 -11
-40 -24 -91 -29 -113 -5 -22 -11 -51 -14 -65 -3 -14 -7 -42 -8 -63 -1 -31 -8
-43 -37 -65 -19 -15 -56 -47 -81 -71 -25 -24 -65 -60 -89 -80 -49 -39 -129
-112 -257 -234 -158 -150 -268 -374 -265 -539 1 -81 20 -154 54 -203 30 -42
117 -124 142 -131 11 -4 34 -18 51 -31 40 -30 123 -55 199 -58 33 -1 66 -3 74
-4 17 -1 10 -68 -20 -185 -21 -82 -23 -96 -34 -226 -8 -92 -14 -147 -19 -180
-3 -14 -7 -41 -10 -61 -3 -20 -8 -42 -10 -50 -3 -8 -7 -30 -10 -49 -3 -19 -10
-60 -17 -90 -15 -75 -17 -89 -24 -135 -3 -22 -8 -53 -12 -70 -4 -16 -7 -39 -8
-50 -1 -11 -5 -33 -8 -50 -4 -16 -9 -52 -13 -80 -8 -71 -12 -89 -40 -201 -9
-38 -18 -112 -20 -164 -1 -52 -5 -117 -7 -145 -3 -27 -9 -136 -12 -242 l-7
-192 1676 0 c922 0 1676 2 1676 5 0 11 -33 112 -62 189 -17 44 -35 94 -39 110
-9 28 -11 42 -24 138 -4 30 2 54 25 102 16 35 30 68 30 74 0 18 39 99 51 106
5 4 22 32 35 63 54 120 66 141 82 147 10 3 58 90 112 201 52 108 111 221 131
252 20 32 45 83 55 116 10 32 24 61 31 63 7 3 13 11 13 19 0 8 4 14 9 14 4 0
29 19 55 41 l47 41 72 -30 c102 -44 181 -61 192 -42 3 5 -48 34 -112 66 -65
31 -120 59 -122 60 -7 6 31 84 41 84 5 0 24 -6 43 -14 33 -14 114 -31 145 -30
68 3 80 15 33 32 -16 6 -59 22 -98 36 -38 14 -78 26 -87 26 -12 0 -18 8 -18
24 0 29 16 42 33 28 21 -16 77 -31 138 -38 49 -5 63 -3 79 11 26 24 25 51 -2
69 -30 19 -75 27 -205 35 -8 1 -13 16 -13 39 0 78 -64 232 -120 289 -36 36
-108 81 -139 86 -11 2 -22 5 -25 8 -4 4 -13 136 -21 317 -2 56 -7 107 -10 112
-3 5 11 2 31 -6 60 -25 388 -21 457 5 52 21 103 98 102 156 -3 148 -37 256
-104 334 -25 29 -62 74 -81 100 -33 44 -72 84 -172 176 -46 42 -242 175 -318
214 -25 13 -63 36 -85 51 -22 14 -48 29 -57 33 -10 3 -18 15 -18 26 0 11 -10
32 -22 48 -13 15 -27 35 -33 44 -39 62 -67 99 -95 125 -17 16 -37 40 -45 54
-7 14 -24 31 -37 38 -13 7 -32 26 -43 42 -11 16 -42 47 -70 67 -27 21 -52 41
-53 46 -10 22 -276 227 -295 227 -3 0 -36 17 -74 39 -37 21 -88 46 -113 54
-25 9 -83 30 -130 47 -47 17 -96 34 -109 36 -13 3 -49 13 -80 24 -31 11 -67
21 -81 24 -14 2 -42 7 -63 11 -65 13 -206 11 -245 -3z"/>
</g>
</svg>
